<mxfile host="app.diagrams.net" modified="2024-04-26T21:18:01.545Z" agent="Mozilla/5.0 (Windows NT 10.0; Win64; x64) AppleWebKit/537.36 (KHTML, like Gecko) Chrome/124.0.0.0 Safari/537.36" etag="szq_cV9_LXf6GJPdxm0i" version="24.3.1" type="device">
  <diagram id="C5RBs43oDa-KdzZeNtuy" name="Page-1">
    <mxGraphModel dx="3187" dy="1640" grid="1" gridSize="10" guides="1" tooltips="1" connect="1" arrows="1" fold="1" page="1" pageScale="1" pageWidth="1200" pageHeight="1920" math="0" shadow="0">
      <root>
        <mxCell id="WIyWlLk6GJQsqaUBKTNV-0" />
        <mxCell id="WIyWlLk6GJQsqaUBKTNV-1" parent="WIyWlLk6GJQsqaUBKTNV-0" />
        <mxCell id="qiCphdmtmEBIRvj--sZI-1" value="Pharmacy&amp;nbsp;" style="shape=umlActor;verticalLabelPosition=bottom;verticalAlign=top;html=1;outlineConnect=0;" vertex="1" parent="WIyWlLk6GJQsqaUBKTNV-1">
          <mxGeometry x="70" y="240" width="30" height="60" as="geometry" />
        </mxCell>
        <mxCell id="qiCphdmtmEBIRvj--sZI-4" value="Patient" style="shape=umlActor;verticalLabelPosition=bottom;verticalAlign=top;html=1;outlineConnect=0;" vertex="1" parent="WIyWlLk6GJQsqaUBKTNV-1">
          <mxGeometry x="1110" y="190" width="30" height="60" as="geometry" />
        </mxCell>
        <mxCell id="qiCphdmtmEBIRvj--sZI-8" value="Admin" style="shape=umlActor;verticalLabelPosition=bottom;verticalAlign=top;html=1;outlineConnect=0;" vertex="1" parent="WIyWlLk6GJQsqaUBKTNV-1">
          <mxGeometry x="70" y="1010" width="30" height="60" as="geometry" />
        </mxCell>
        <mxCell id="qiCphdmtmEBIRvj--sZI-13" value="" style="endArrow=none;html=1;rounded=0;entryX=-0.009;entryY=0.58;entryDx=0;entryDy=0;entryPerimeter=0;" edge="1" parent="WIyWlLk6GJQsqaUBKTNV-1" target="qiCphdmtmEBIRvj--sZI-2">
          <mxGeometry width="50" height="50" relative="1" as="geometry">
            <mxPoint x="120" y="260" as="sourcePoint" />
            <mxPoint x="170" y="210" as="targetPoint" />
          </mxGeometry>
        </mxCell>
        <mxCell id="qiCphdmtmEBIRvj--sZI-14" value="" style="endArrow=none;html=1;rounded=0;entryX=0.017;entryY=0.586;entryDx=0;entryDy=0;entryPerimeter=0;" edge="1" parent="WIyWlLk6GJQsqaUBKTNV-1" target="qiCphdmtmEBIRvj--sZI-6">
          <mxGeometry width="50" height="50" relative="1" as="geometry">
            <mxPoint x="120" y="260" as="sourcePoint" />
            <mxPoint x="170" y="210" as="targetPoint" />
          </mxGeometry>
        </mxCell>
        <mxCell id="qiCphdmtmEBIRvj--sZI-15" value="" style="endArrow=none;html=1;rounded=0;entryX=0;entryY=0.5;entryDx=0;entryDy=0;" edge="1" parent="WIyWlLk6GJQsqaUBKTNV-1" target="qiCphdmtmEBIRvj--sZI-7">
          <mxGeometry width="50" height="50" relative="1" as="geometry">
            <mxPoint x="120" y="260" as="sourcePoint" />
            <mxPoint x="170" y="210" as="targetPoint" />
          </mxGeometry>
        </mxCell>
        <mxCell id="qiCphdmtmEBIRvj--sZI-16" value="" style="endArrow=none;html=1;rounded=0;entryX=0.017;entryY=0.31;entryDx=0;entryDy=0;entryPerimeter=0;" edge="1" parent="WIyWlLk6GJQsqaUBKTNV-1" target="qiCphdmtmEBIRvj--sZI-10">
          <mxGeometry width="50" height="50" relative="1" as="geometry">
            <mxPoint x="120" y="260" as="sourcePoint" />
            <mxPoint x="170" y="210" as="targetPoint" />
          </mxGeometry>
        </mxCell>
        <mxCell id="qiCphdmtmEBIRvj--sZI-17" value="" style="endArrow=none;html=1;rounded=0;entryX=0;entryY=0;entryDx=0;entryDy=0;" edge="1" parent="WIyWlLk6GJQsqaUBKTNV-1" target="qiCphdmtmEBIRvj--sZI-11">
          <mxGeometry width="50" height="50" relative="1" as="geometry">
            <mxPoint x="120" y="260" as="sourcePoint" />
            <mxPoint x="170" y="210" as="targetPoint" />
          </mxGeometry>
        </mxCell>
        <mxCell id="qiCphdmtmEBIRvj--sZI-18" value="can buy medicine" style="ellipse;whiteSpace=wrap;html=1;" vertex="1" parent="WIyWlLk6GJQsqaUBKTNV-1">
          <mxGeometry x="810" y="50" width="80" height="60" as="geometry" />
        </mxCell>
        <mxCell id="qiCphdmtmEBIRvj--sZI-19" value="upload prescriptions" style="ellipse;whiteSpace=wrap;html=1;" vertex="1" parent="WIyWlLk6GJQsqaUBKTNV-1">
          <mxGeometry x="810" y="150" width="80" height="60" as="geometry" />
        </mxCell>
        <mxCell id="qiCphdmtmEBIRvj--sZI-22" value="manage details" style="ellipse;whiteSpace=wrap;html=1;" vertex="1" parent="WIyWlLk6GJQsqaUBKTNV-1">
          <mxGeometry x="810" y="250" width="80" height="60" as="geometry" />
        </mxCell>
        <mxCell id="qiCphdmtmEBIRvj--sZI-23" value="can place an order" style="ellipse;whiteSpace=wrap;html=1;" vertex="1" parent="WIyWlLk6GJQsqaUBKTNV-1">
          <mxGeometry x="810" y="340" width="80" height="60" as="geometry" />
        </mxCell>
        <mxCell id="qiCphdmtmEBIRvj--sZI-24" value="search for medicine" style="ellipse;whiteSpace=wrap;html=1;" vertex="1" parent="WIyWlLk6GJQsqaUBKTNV-1">
          <mxGeometry x="820" y="440" width="80" height="60" as="geometry" />
        </mxCell>
        <mxCell id="qiCphdmtmEBIRvj--sZI-138" value="" style="endArrow=none;html=1;rounded=0;exitX=0;exitY=0.3333333333333333;exitDx=0;exitDy=0;exitPerimeter=0;entryX=1;entryY=0.5;entryDx=0;entryDy=0;" edge="1" parent="WIyWlLk6GJQsqaUBKTNV-1" source="qiCphdmtmEBIRvj--sZI-4" target="qiCphdmtmEBIRvj--sZI-18">
          <mxGeometry width="50" height="50" relative="1" as="geometry">
            <mxPoint x="870" y="120" as="sourcePoint" />
            <mxPoint x="760" y="240" as="targetPoint" />
          </mxGeometry>
        </mxCell>
        <mxCell id="qiCphdmtmEBIRvj--sZI-139" value="" style="endArrow=none;html=1;rounded=0;entryX=0.986;entryY=0.367;entryDx=0;entryDy=0;entryPerimeter=0;" edge="1" parent="WIyWlLk6GJQsqaUBKTNV-1" target="qiCphdmtmEBIRvj--sZI-19">
          <mxGeometry width="50" height="50" relative="1" as="geometry">
            <mxPoint x="1110" y="210" as="sourcePoint" />
            <mxPoint x="890" y="175" as="targetPoint" />
          </mxGeometry>
        </mxCell>
        <mxCell id="qiCphdmtmEBIRvj--sZI-140" value="" style="endArrow=none;html=1;rounded=0;entryX=0.986;entryY=0.367;entryDx=0;entryDy=0;entryPerimeter=0;" edge="1" parent="WIyWlLk6GJQsqaUBKTNV-1">
          <mxGeometry width="50" height="50" relative="1" as="geometry">
            <mxPoint x="1110" y="210" as="sourcePoint" />
            <mxPoint x="889" y="279.98" as="targetPoint" />
          </mxGeometry>
        </mxCell>
        <mxCell id="qiCphdmtmEBIRvj--sZI-141" value="" style="endArrow=none;html=1;rounded=0;entryX=0.986;entryY=0.367;entryDx=0;entryDy=0;entryPerimeter=0;" edge="1" parent="WIyWlLk6GJQsqaUBKTNV-1">
          <mxGeometry width="50" height="50" relative="1" as="geometry">
            <mxPoint x="1101" y="220" as="sourcePoint" />
            <mxPoint x="880" y="350" as="targetPoint" />
          </mxGeometry>
        </mxCell>
        <mxCell id="qiCphdmtmEBIRvj--sZI-142" value="" style="endArrow=none;html=1;rounded=0;entryX=0.986;entryY=0.367;entryDx=0;entryDy=0;entryPerimeter=0;exitX=0;exitY=0.3333333333333333;exitDx=0;exitDy=0;exitPerimeter=0;" edge="1" parent="WIyWlLk6GJQsqaUBKTNV-1" source="qiCphdmtmEBIRvj--sZI-4">
          <mxGeometry width="50" height="50" relative="1" as="geometry">
            <mxPoint x="1101" y="310" as="sourcePoint" />
            <mxPoint x="880" y="440" as="targetPoint" />
          </mxGeometry>
        </mxCell>
        <mxCell id="qiCphdmtmEBIRvj--sZI-143" value="Driver" style="shape=umlActor;verticalLabelPosition=bottom;verticalAlign=top;html=1;outlineConnect=0;" vertex="1" parent="WIyWlLk6GJQsqaUBKTNV-1">
          <mxGeometry x="1110" y="810" width="30" height="60" as="geometry" />
        </mxCell>
        <mxCell id="qiCphdmtmEBIRvj--sZI-145" value="can manage users" style="ellipse;whiteSpace=wrap;html=1;" vertex="1" parent="WIyWlLk6GJQsqaUBKTNV-1">
          <mxGeometry x="300" y="800" width="80" height="60" as="geometry" />
        </mxCell>
        <mxCell id="qiCphdmtmEBIRvj--sZI-146" value="manage applications" style="ellipse;whiteSpace=wrap;html=1;" vertex="1" parent="WIyWlLk6GJQsqaUBKTNV-1">
          <mxGeometry x="300" y="910" width="80" height="60" as="geometry" />
        </mxCell>
        <mxCell id="qiCphdmtmEBIRvj--sZI-147" value="can manage users" style="ellipse;whiteSpace=wrap;html=1;" vertex="1" parent="WIyWlLk6GJQsqaUBKTNV-1">
          <mxGeometry x="300" y="1020" width="80" height="60" as="geometry" />
        </mxCell>
        <mxCell id="qiCphdmtmEBIRvj--sZI-150" value="can manage users" style="ellipse;whiteSpace=wrap;html=1;" vertex="1" parent="WIyWlLk6GJQsqaUBKTNV-1">
          <mxGeometry x="300" y="1130" width="80" height="60" as="geometry" />
        </mxCell>
        <mxCell id="qiCphdmtmEBIRvj--sZI-152" value="" style="endArrow=none;html=1;rounded=0;exitX=1;exitY=0.3333333333333333;exitDx=0;exitDy=0;exitPerimeter=0;entryX=0;entryY=0.5;entryDx=0;entryDy=0;" edge="1" parent="WIyWlLk6GJQsqaUBKTNV-1" source="qiCphdmtmEBIRvj--sZI-8" target="qiCphdmtmEBIRvj--sZI-145">
          <mxGeometry width="50" height="50" relative="1" as="geometry">
            <mxPoint x="150" y="990" as="sourcePoint" />
            <mxPoint x="200" y="940" as="targetPoint" />
          </mxGeometry>
        </mxCell>
        <mxCell id="qiCphdmtmEBIRvj--sZI-153" value="" style="endArrow=none;html=1;rounded=0;exitX=1;exitY=0.3333333333333333;exitDx=0;exitDy=0;exitPerimeter=0;entryX=0;entryY=0.5;entryDx=0;entryDy=0;" edge="1" parent="WIyWlLk6GJQsqaUBKTNV-1" source="qiCphdmtmEBIRvj--sZI-8" target="qiCphdmtmEBIRvj--sZI-146">
          <mxGeometry width="50" height="50" relative="1" as="geometry">
            <mxPoint x="290" y="990" as="sourcePoint" />
            <mxPoint x="300" y="950" as="targetPoint" />
          </mxGeometry>
        </mxCell>
        <mxCell id="qiCphdmtmEBIRvj--sZI-154" value="" style="endArrow=none;html=1;rounded=0;exitX=1;exitY=0.3333333333333333;exitDx=0;exitDy=0;exitPerimeter=0;entryX=0;entryY=0;entryDx=0;entryDy=0;" edge="1" parent="WIyWlLk6GJQsqaUBKTNV-1" source="qiCphdmtmEBIRvj--sZI-8" target="qiCphdmtmEBIRvj--sZI-147">
          <mxGeometry width="50" height="50" relative="1" as="geometry">
            <mxPoint x="190" y="1040" as="sourcePoint" />
            <mxPoint x="240" y="990" as="targetPoint" />
          </mxGeometry>
        </mxCell>
        <mxCell id="qiCphdmtmEBIRvj--sZI-155" value="" style="endArrow=none;html=1;rounded=0;entryX=0;entryY=0;entryDx=0;entryDy=0;exitX=1;exitY=0.3333333333333333;exitDx=0;exitDy=0;exitPerimeter=0;" edge="1" parent="WIyWlLk6GJQsqaUBKTNV-1" source="qiCphdmtmEBIRvj--sZI-8" target="qiCphdmtmEBIRvj--sZI-150">
          <mxGeometry width="50" height="50" relative="1" as="geometry">
            <mxPoint x="290" y="990" as="sourcePoint" />
            <mxPoint x="340" y="940" as="targetPoint" />
          </mxGeometry>
        </mxCell>
        <mxCell id="qiCphdmtmEBIRvj--sZI-156" value="manage deliverable orders" style="ellipse;whiteSpace=wrap;html=1;" vertex="1" parent="WIyWlLk6GJQsqaUBKTNV-1">
          <mxGeometry x="870" y="760" width="80" height="60" as="geometry" />
        </mxCell>
        <mxCell id="qiCphdmtmEBIRvj--sZI-157" value="can rate deliveries" style="ellipse;whiteSpace=wrap;html=1;" vertex="1" parent="WIyWlLk6GJQsqaUBKTNV-1">
          <mxGeometry x="820" y="530" width="80" height="60" as="geometry" />
        </mxCell>
        <mxCell id="qiCphdmtmEBIRvj--sZI-158" value="" style="endArrow=none;html=1;rounded=0;entryX=1;entryY=0;entryDx=0;entryDy=0;exitX=0;exitY=0.3333333333333333;exitDx=0;exitDy=0;exitPerimeter=0;" edge="1" parent="WIyWlLk6GJQsqaUBKTNV-1" source="qiCphdmtmEBIRvj--sZI-4" target="qiCphdmtmEBIRvj--sZI-157">
          <mxGeometry width="50" height="50" relative="1" as="geometry">
            <mxPoint x="590" y="670" as="sourcePoint" />
            <mxPoint x="640" y="620" as="targetPoint" />
          </mxGeometry>
        </mxCell>
        <mxCell id="qiCphdmtmEBIRvj--sZI-159" value="" style="endArrow=none;html=1;rounded=0;entryX=1;entryY=0.5;entryDx=0;entryDy=0;exitX=0;exitY=0.3333333333333333;exitDx=0;exitDy=0;exitPerimeter=0;" edge="1" parent="WIyWlLk6GJQsqaUBKTNV-1" source="qiCphdmtmEBIRvj--sZI-143" target="qiCphdmtmEBIRvj--sZI-156">
          <mxGeometry width="50" height="50" relative="1" as="geometry">
            <mxPoint x="550" y="860" as="sourcePoint" />
            <mxPoint x="600" y="810" as="targetPoint" />
          </mxGeometry>
        </mxCell>
        <mxCell id="qiCphdmtmEBIRvj--sZI-160" value="manage car kyc" style="ellipse;whiteSpace=wrap;html=1;" vertex="1" parent="WIyWlLk6GJQsqaUBKTNV-1">
          <mxGeometry x="870" y="860" width="80" height="60" as="geometry" />
        </mxCell>
        <mxCell id="qiCphdmtmEBIRvj--sZI-161" value="" style="endArrow=none;html=1;rounded=0;entryX=1;entryY=0;entryDx=0;entryDy=0;" edge="1" parent="WIyWlLk6GJQsqaUBKTNV-1" target="qiCphdmtmEBIRvj--sZI-160">
          <mxGeometry width="50" height="50" relative="1" as="geometry">
            <mxPoint x="1110" y="830" as="sourcePoint" />
            <mxPoint x="600" y="810" as="targetPoint" />
          </mxGeometry>
        </mxCell>
        <mxCell id="qiCphdmtmEBIRvj--sZI-163" value="" style="swimlane;startSize=0;" vertex="1" parent="WIyWlLk6GJQsqaUBKTNV-1">
          <mxGeometry x="100" y="40" width="1010" height="1440" as="geometry" />
        </mxCell>
        <mxCell id="qiCphdmtmEBIRvj--sZI-2" value="manage medicine" style="ellipse;whiteSpace=wrap;html=1;" vertex="1" parent="qiCphdmtmEBIRvj--sZI-163">
          <mxGeometry x="140" y="40" width="80" height="60" as="geometry" />
        </mxCell>
        <mxCell id="qiCphdmtmEBIRvj--sZI-6" value="manage prescriptions" style="ellipse;whiteSpace=wrap;html=1;" vertex="1" parent="qiCphdmtmEBIRvj--sZI-163">
          <mxGeometry x="140" y="120" width="80" height="60" as="geometry" />
        </mxCell>
        <mxCell id="qiCphdmtmEBIRvj--sZI-7" value="manage details" style="ellipse;whiteSpace=wrap;html=1;" vertex="1" parent="qiCphdmtmEBIRvj--sZI-163">
          <mxGeometry x="140" y="190" width="80" height="60" as="geometry" />
        </mxCell>
        <mxCell id="qiCphdmtmEBIRvj--sZI-10" value="manage orders" style="ellipse;whiteSpace=wrap;html=1;" vertex="1" parent="qiCphdmtmEBIRvj--sZI-163">
          <mxGeometry x="140" y="270" width="80" height="60" as="geometry" />
        </mxCell>
        <mxCell id="qiCphdmtmEBIRvj--sZI-11" value="manage customers" style="ellipse;whiteSpace=wrap;html=1;" vertex="1" parent="qiCphdmtmEBIRvj--sZI-163">
          <mxGeometry x="140" y="350" width="80" height="60" as="geometry" />
        </mxCell>
      </root>
    </mxGraphModel>
  </diagram>
</mxfile>
